<svg xmlns="http://www.w3.org/2000/svg" width="340.72" height="73.4" viewBox="0 0 340.72 73.4">
  <g id="logo-light" transform="translate(-1.394)">
    <path id="Path_9" data-name="Path 9" d="M120.19,59.9a22.793,22.793,0,0,0,8.31-1.5,14.388,14.388,0,0,0,6.24-4.5,11.579,11.579,0,0,0,2.4-7.47,10.591,10.591,0,0,0-1.2-5.31,9.855,9.855,0,0,0-3.03-3.42,16.228,16.228,0,0,0-3.81-2.01q-1.95-.72-3.54-1.14l-7.74-2.16a27,27,0,0,1-2.88-.96,7.088,7.088,0,0,1-2.4-1.59,3.655,3.655,0,0,1-.96-2.61,4.309,4.309,0,0,1,1.11-2.94,7.478,7.478,0,0,1,2.97-1.95,10.607,10.607,0,0,1,4.02-.63,10.78,10.78,0,0,1,6,1.95,8.119,8.119,0,0,1,3.36,5.28l7.77-1.35a15.513,15.513,0,0,0-5.91-9.27,18.52,18.52,0,0,0-11.13-3.36,20.915,20.915,0,0,0-7.98,1.41,12.9,12.9,0,0,0-5.7,4.23,11.376,11.376,0,0,0-2.1,6.99,11.1,11.1,0,0,0,.93,4.8,9.684,9.684,0,0,0,2.43,3.15,13.447,13.447,0,0,0,3.15,1.95,27.625,27.625,0,0,0,3.12,1.14l11.16,3.3q4.8,1.44,4.8,4.98a4.846,4.846,0,0,1-1.29,3.39,7.952,7.952,0,0,1-3.3,2.1,12.975,12.975,0,0,1-4.35.72,11.733,11.733,0,0,1-6.9-2.1,9.945,9.945,0,0,1-3.93-5.94l-7.5,1.14a15.709,15.709,0,0,0,3.12,7.32,16.149,16.149,0,0,0,6.24,4.71A21.227,21.227,0,0,0,120.19,59.9Zm23.384-.9h7.38V43.4L163.344,59h9.57l-13.65-16.2,12.57-16.2H162.8l-11.85,15.6V15.8h-7.32Zm36.6,14.4h6.78l18.06-46.8h-7.23L189,49.79l-9.06-23.19h-7.53l13.11,32.16Zm41.132-13.5a14.637,14.637,0,0,0,5.19-.87,12.712,12.712,0,0,0,4.05-2.43V59h6.39V15.8h-7.29V28.19a12.155,12.155,0,0,0-3.63-1.83,15.387,15.387,0,0,0-12.42,1.56,14.811,14.811,0,0,0-5.22,6.09,20.044,20.044,0,0,0-1.86,8.79,20.176,20.176,0,0,0,1.83,8.73,14.893,14.893,0,0,0,5.16,6.12A13.6,13.6,0,0,0,221.311,59.9Zm1.11-6.48a7.4,7.4,0,0,1-4.65-1.41,8.6,8.6,0,0,1-2.73-3.84,15.672,15.672,0,0,1-.87-5.37,15.108,15.108,0,0,1,.9-5.34,8.495,8.495,0,0,1,2.79-3.84,7.7,7.7,0,0,1,4.8-1.44q4.14,0,6,2.94a14,14,0,0,1,1.89,7.68,14.094,14.094,0,0,1-1.89,7.68Q226.8,53.42,222.421,53.42Zm31.991,6.48a15.462,15.462,0,0,0,6.57-1.26,13.109,13.109,0,0,0,4.8-3.99V59h6.33V39.11a38.418,38.418,0,0,0-.18-3.87,9.854,9.854,0,0,0-1.05-3.51,9.425,9.425,0,0,0-4.89-4.62,19.033,19.033,0,0,0-7.59-1.41q-5.7,0-9.09,2.49a12.208,12.208,0,0,0-4.59,6.6l6.6,2.07a5.66,5.66,0,0,1,2.85-3.51,9.347,9.347,0,0,1,4.23-1.02,7.307,7.307,0,0,1,4.86,1.35,5.683,5.683,0,0,1,1.77,4.11q-4.26.63-7.92,1.23a39.722,39.722,0,0,0-6.18,1.41,11.171,11.171,0,0,0-5.61,3.75,9.733,9.733,0,0,0-1.77,5.94,9.92,9.92,0,0,0,1.23,4.89,9.336,9.336,0,0,0,3.69,3.57A12.3,12.3,0,0,0,254.412,59.9Zm1.44-5.76a5.787,5.787,0,0,1-3.9-1.17,3.763,3.763,0,0,1-1.32-2.94,3.434,3.434,0,0,1,1.02-2.58,8.519,8.519,0,0,1,2.91-1.68,28.943,28.943,0,0,1,4.11-.99q2.4-.45,6.27-1.05-.03,1.14-.15,2.55a8.577,8.577,0,0,1-.57,2.49,7.374,7.374,0,0,1-1.41,2.37,8.194,8.194,0,0,1-2.76,2.13A9.308,9.308,0,0,1,255.852,54.14Zm36.581,5.76q6.27,0,9.81-2.79a9.21,9.21,0,0,0,3.57-7.68,7.586,7.586,0,0,0-2.4-5.94q-2.37-2.16-8.19-3.66-3.78-.96-5.7-1.62A6.734,6.734,0,0,1,287,36.89a2.22,2.22,0,0,1-.63-1.59,2.786,2.786,0,0,1,1.56-2.52,7.277,7.277,0,0,1,4.11-.81,7.594,7.594,0,0,1,4.23,1.35,4.751,4.751,0,0,1,1.92,3.27l7.38-1.32a9.8,9.8,0,0,0-4.29-6.96,15.824,15.824,0,0,0-9.36-2.61q-5.79,0-9.27,2.7a8.713,8.713,0,0,0-3.48,7.26,7.179,7.179,0,0,0,2.43,5.73q2.46,2.1,8.55,3.69,3.66.96,5.4,1.62a5.453,5.453,0,0,1,2.31,1.29,2.711,2.711,0,0,1,.54,1.77,3.343,3.343,0,0,1-1.44,2.85,6.867,6.867,0,0,1-4.02,1.02,8.451,8.451,0,0,1-4.95-1.38,6.109,6.109,0,0,1-2.49-3.78l-7.38,1.14a11.2,11.2,0,0,0,4.56,7.59A16.3,16.3,0,0,0,292.433,59.9Zm19.891-.9h7.32V42.35a13.366,13.366,0,0,1,1.11-6.06,6.389,6.389,0,0,1,2.88-2.97,8.317,8.317,0,0,1,3.6-.84,6.725,6.725,0,0,1,4.11,1.14,6.553,6.553,0,0,1,2.25,2.85,12.262,12.262,0,0,1,.96,3.57,26.488,26.488,0,0,1,.24,3.36V59h7.32V40.91a28.815,28.815,0,0,0-.21-3.03,19.519,19.519,0,0,0-.84-3.99,13.321,13.321,0,0,0-2.04-3.96,10.033,10.033,0,0,0-3.75-3.06,12.9,12.9,0,0,0-5.91-1.2,14.629,14.629,0,0,0-6.18,1.23,12.368,12.368,0,0,0-4.41,3.3V15.8h-6.45Z" fill="#fff"/>
    <circle id="Ellipse_3" data-name="Ellipse 3" cx="36.5" cy="36.5" r="36.5" transform="translate(17)" fill="#fff5d8"/>
    <path id="Path_10" data-name="Path 10" d="M3.437,12.042a13.281,13.281,0,0,1,6.491,2.13A12.859,12.859,0,0,1,11.4,15.378a15.722,15.722,0,0,1,1.31,1.484c.354.467.7.931,1.032,1.415a104.573,104.573,0,0,1,16.345,2.355A87.236,87.236,0,0,1,41.259,24a43.885,43.885,0,0,1,9.464,5.018A54.834,54.834,0,0,0,27.132,13.856,49.735,49.735,0,0,0,1.394,12.014C2.068,11.989,2.754,12,3.437,12.042Z" fill="#ff7417"/>
    <path id="Path_11" data-name="Path 11" d="M29.634,23.83c-3.682-.9-7.411-1.524-11.146-2.061-.9-.134-1.809-.269-2.709-.368a62.8,62.8,0,0,1,3.032,5.518c.188.386.375.785.563,1.182a102.287,102.287,0,0,1,14.6,2.107l2.769.718,1.382.37,1.369.444,2.737.9c.91.348,1.808.713,2.713,1.092A42.629,42.629,0,0,1,55.31,39.737a30.393,30.393,0,0,1,7.126,7.927,69.686,69.686,0,0,0-4.12-8.25,30.414,30.414,0,0,0-7.388-7.3A43.3,43.3,0,0,0,40.584,26.97,92.18,92.18,0,0,0,29.634,23.83Z" fill="#ff7417"/>
    <path id="Path_12" data-name="Path 12" d="M54.327,41.942a44.513,44.513,0,0,0-10.11-5.269l-2.627-1-2.673-.836-1.341-.413-1.354-.339-2.7-.678c-3.628-.817-7.279-1.5-10.952-1.95-.6-.093-1.211-.178-1.819-.249a14.817,14.817,0,0,0,1.385,2.583,12.572,12.572,0,0,0,4.837,4.173,16.721,16.721,0,0,0,2.92,1.073l3.156.884,12.607,3.709,6.278,1.925a19.094,19.094,0,0,1,6.09,3.761,39.407,39.407,0,0,1,8.589,12.11,36.091,36.091,0,0,0-3.978-10.657A28.462,28.462,0,0,0,54.327,41.942Z" fill="#ff7417"/>
  </g>
</svg>
